<svg width="126" height="126" viewBox="0 0 126 126" fill="none" xmlns="http://www.w3.org/2000/svg">
<g filter="url(#filter0_d_62_254)">
<rect x="48" y="36" width="30" height="30" rx="8" fill="#FF8E2B"/>
</g>
<g clip-path="url(#clip0_62_254)">
<path d="M63 42.6001C59.6871 42.6001 57 45.2335 57 48.4801C57 52.8901 63 59.4001 63 59.4001C63 59.4001 69 52.8901 69 48.4801C69 45.2335 66.3129 42.6001 63 42.6001ZM63 50.5801C61.8171 50.5801 60.8571 49.6393 60.8571 48.4801C60.8571 47.3209 61.8171 46.3801 63 46.3801C64.1829 46.3801 65.1429 47.3209 65.1429 48.4801C65.1429 49.6393 64.1829 50.5801 63 50.5801Z" fill="white"/>
</g>
<defs>
<filter id="filter0_d_62_254" x="0" y="0" width="126" height="126" filterUnits="userSpaceOnUse" color-interpolation-filters="sRGB">
<feFlood flood-opacity="0" result="BackgroundImageFix"/>
<feColorMatrix in="SourceAlpha" type="matrix" values="0 0 0 0 0 0 0 0 0 0 0 0 0 0 0 0 0 0 127 0" result="hardAlpha"/>
<feOffset dy="12"/>
<feGaussianBlur stdDeviation="24"/>
<feComposite in2="hardAlpha" operator="out"/>
<feColorMatrix type="matrix" values="0 0 0 0 0 0 0 0 0 0 0 0 0 0 0 0 0 0 0.06 0"/>
<feBlend mode="normal" in2="BackgroundImageFix" result="effect1_dropShadow_62_254"/>
<feBlend mode="normal" in="SourceGraphic" in2="effect1_dropShadow_62_254" result="shape"/>
</filter>
<clipPath id="clip0_62_254">
<rect width="18" height="18" fill="white" transform="translate(54 42)"/>
</clipPath>
</defs>
</svg>
