<svg width="186" height="48" viewBox="0 0 186 48" fill="none" xmlns="http://www.w3.org/2000/svg">
<g clip-path="url(#clip0_7_893)">
<path d="M30.08 23.3905L21.4052 23.9448C21.2926 23.1688 20.9546 22.5036 20.3913 21.9494C19.9407 21.3951 19.2647 20.8408 18.4761 20.5083C17.6875 20.1757 16.7862 19.954 15.6596 19.954C14.195 19.954 12.9558 20.2866 11.9419 20.8408C10.9279 21.3951 10.4773 22.2819 10.4773 23.2796C10.4773 24.0556 10.8153 24.7207 11.4912 25.275C12.1672 25.8293 13.2938 26.2727 14.871 26.6053L21.0672 27.8247C24.447 28.4898 26.9255 29.5983 28.5027 31.0394C30.1926 32.4805 30.9812 34.4759 30.9812 36.9147C30.9812 39.1318 30.3053 41.0163 28.9534 42.6792C27.6015 44.342 25.7989 45.6722 23.5457 46.5591C21.2926 47.4459 18.5887 48.0002 15.6596 48.0002C11.1533 48.0002 7.54816 47.1133 4.84435 45.2288C2.14053 43.3443 0.563307 40.7946 0.112671 37.5799L9.46337 37.1364C9.80134 38.4667 10.4773 39.5752 11.4912 40.2404C12.6178 40.9055 13.9697 41.3489 15.6596 41.3489C17.3495 41.3489 18.7014 41.0163 19.7153 40.3512C20.7293 39.6861 21.2926 38.9101 21.2926 37.9124C21.2926 37.0256 20.9546 36.3605 20.166 35.8062C19.49 35.2519 18.3634 34.8085 16.8989 34.5868L10.9279 33.4782C7.54816 32.8131 5.06967 31.7046 3.49244 30.0417C1.91521 28.3789 1.01394 26.3836 1.01394 23.8339C1.01394 21.7277 1.57724 19.8431 2.81649 18.2912C3.94308 16.6284 5.63296 15.409 7.77348 14.633C9.914 13.7461 12.5052 13.4136 15.4343 13.4136C19.7153 13.4136 23.2078 14.3004 25.6863 16.0741C28.1648 17.8478 29.6293 20.2866 30.08 23.3905Z" fill="#3079B0"/>
<path d="M46.3028 27.9355V47.335H36.8395V2.5498H46.0775V19.7323H46.5281C47.3168 17.7369 48.556 16.1849 50.2459 15.0764C51.9358 13.9678 54.189 13.4135 56.7801 13.4135C59.146 13.4135 61.2865 13.9678 62.9764 14.9655C64.7789 15.9632 66.1308 17.4043 67.1447 19.2888C68.1587 21.1734 68.6093 23.3905 68.6093 26.051V47.4459H59.146V27.6029C59.146 25.4967 58.5827 23.9447 57.5687 22.7253C56.4421 21.6168 54.9776 20.9517 53.0624 20.9517C51.8231 20.9517 50.5839 21.1734 49.6826 21.7276C48.6687 22.2819 47.8801 23.0579 47.3168 24.0556C46.6408 25.275 46.3028 26.4944 46.3028 27.9355Z" fill="#3079B0"/>
<path d="M98.0134 33.0348V13.7461H107.477V47.335H98.3513V41.238H98.0134C97.2247 43.2334 95.9855 44.7854 94.183 46.0048C92.3804 47.2242 90.2399 47.7784 87.6487 47.7784C85.3956 47.7784 83.3677 47.2242 81.5652 46.2265C79.8753 45.2288 78.4107 43.7877 77.5094 41.9031C76.4955 40.0186 76.0449 37.8015 76.0449 35.141V13.7461H85.5082V33.4782C85.5082 35.4736 86.0715 37.0255 87.0854 38.1341C88.212 39.2426 89.5639 39.9078 91.3665 39.9078C92.4931 39.9078 93.6197 39.686 94.6336 39.1318C95.6475 38.5775 96.4361 37.8015 96.9994 36.8038C97.788 35.8061 98.0134 34.5867 98.0134 33.0348Z" fill="#3079B0"/>
<path d="M115.138 47.3351V13.7462H124.376V19.6215H124.714C125.389 17.5152 126.403 15.9633 127.868 14.8547C129.333 13.7462 131.022 13.1919 132.938 13.1919C133.388 13.1919 133.952 13.1919 134.515 13.3027C135.078 13.4136 135.529 13.4136 135.979 13.5245V21.8385C135.529 21.7277 134.965 21.6168 134.177 21.506C133.388 21.3951 132.712 21.3951 132.036 21.3951C130.684 21.3951 129.445 21.7277 128.319 22.282C127.192 22.8362 126.403 23.7231 125.727 24.7208C125.052 25.7185 124.826 26.9379 124.826 28.379V47.4459H115.138V47.3351Z" fill="#3079B0"/>
<path d="M146.682 9.42263C145.217 9.42263 144.091 8.97922 143.077 8.09238C142.063 7.20554 141.612 6.097 141.612 4.76674C141.612 3.43649 142.063 2.32794 143.077 1.44111C144.091 0.554272 145.33 0 146.682 0C148.147 0 149.273 0.443418 150.287 1.33025C151.301 2.21709 151.752 3.32563 151.752 4.65589C151.752 5.98614 151.301 7.09469 150.287 7.98152C149.273 8.97921 148.147 9.42263 146.682 9.42263ZM141.95 13.746H151.414V47.3349H141.95V13.746Z" fill="#3079B0"/>
<path d="M163.806 9.42263C162.342 9.42263 161.215 8.97922 160.201 8.09238C159.187 7.20554 158.737 6.097 158.737 4.76674C158.737 3.43649 159.187 2.32794 160.201 1.44111C161.215 0.554272 162.454 0 163.806 0C165.271 0 166.397 0.443418 167.411 1.33025C168.425 2.21709 168.876 3.32563 168.876 4.65589C168.876 5.98614 168.425 7.09469 167.411 7.98152C166.397 8.97921 165.158 9.42263 163.806 9.42263ZM158.962 13.746H168.425V47.3349H158.962V13.746Z" fill="#3079B0"/>
<path d="M180.93 9.42263C179.466 9.42263 178.339 8.97922 177.325 8.09238C176.311 7.20554 175.861 6.097 175.861 4.76674C175.861 3.43649 176.311 2.32794 177.325 1.44111C178.339 0.554272 179.578 0 180.93 0C182.395 0 183.522 0.443418 184.535 1.33025C185.549 2.21709 186 3.32563 186 4.65589C186 5.98614 185.549 7.09469 184.535 7.98152C183.522 8.97921 182.282 9.42263 180.93 9.42263ZM176.086 13.746H185.549V47.3349H176.086V13.746Z" fill="#3079B0"/>
</g>
<defs>
<clipPath id="clip0_7_893">
<rect width="186" height="48" fill="white"/>
</clipPath>
</defs>
</svg>
