<svg version="1.1" id="Layer_1" xmlns="http://www.w3.org/2000/svg" xmlns:xlink="http://www.w3.org/1999/xlink" x="0px" y="0px" viewBox="0 0 1954 1664" style="enable-background:new 0 0 1954 1664;" xml:space="preserve"
fill="#808080">
<path d="M720.4,899.7c-29.3-28.7-58.1-56.6-86.5-84.9c-61.1-61.2-122.8-122-182.8-184.3
	c-48.8-50.7-56.8-110.5-31.9-175.3c23.7-61.9,69-96.6,134.4-105.1c68.2-8.8,121.8,17.3,164,69.9c4.1,5.1,8.1,10.4,12.2,15.5
	c0.6,0.8,2.2,0.8,3.8,1.4c27.6-57.9,76.3-84.9,137.9-88.8c51.2-3.2,97,13.5,135.8,47.6c4.9,4.3,8.8,10,12,15.7
	c7.1,12.8,7.5,25.4-4.2,36c-11.2,10.1-23.8,11.3-36.5,3.3c-9.7-6-18.2-13.8-27.9-19.8c-41-25.3-83.3-29.6-126.4-5.9
	c-8.1,4.4-15.7,11.6-20.8,19.3c-14.9,22.7-4.4,45.4,22.4,48.7c28,3.5,56.6,3,84.1,8.6c73.6,15,101.8,82.2,61.6,146
	c-10.8,17-25.2,32.1-39.7,46.4c-67.2,66.1-135,131.7-202.5,197.4C726.5,894.5,723.3,897.1,720.4,899.7z M747.7,523.3
	c-2.5,9.5-4.8,17.4-6.6,25.4c-10.9,48.7-39.2,85.9-77.4,116.1c-17.7,14-36.2,13.2-47.1,0.5c-11.3-13-8.5-32.8,6.3-48.6
	c12.7-13.6,26.1-26.8,37.4-41.4c31.1-40.3,28.9-88.9-4.9-128.9c-31.5-37.2-82.6-46.2-127.7-22.4c-42.4,22.4-66.2,75-54.5,119
	c7,26.2,24.2,45,42.6,63.5C578,669,640.3,731.7,702,794.9c12.6,12.9,21.5,13.4,35.2,0.5c47.3-44.4,96.6-86.7,143.6-131.5
	c16.1-15.4,30.1-34.4,40.5-54.2c11.8-22.5-0.4-43.1-25.4-48.9c-9.9-2.3-20.2-2.4-30.3-3.9c-28.9-4.4-58-7.8-86.4-14.2
	C768.5,540.2,759.2,530.6,747.7,523.3z"></path>
<path d="M1524.1,321c-38.6,0-72-0.3-105.5,0.1c-94.4,0.9-188.8,2.3-283.2,3.1c-26.6,0.2-35.9-8.4-34.9-34
	c3.1-77.8-6-154.6-15.6-231.5c-3.5-27.7,4.6-35.5,33.1-35.5c259.2,0,518.4,0,777.6,0c31.5,0,38.3,6.5,37.8,38.1
	c-1.4,74.5-3.2,149-4.7,223.5c-0.3,16-5.8,28-19.3,38.2c-61.4,46.3-122.1,93.6-183,140.6c-4.6,3.6-9,7.3-14.1,11.5
	c21.9,19.9,43.6,37.8,63.2,57.8c77.6,79.1,116.5,175.4,121.4,285.1c5.9,131.1-33.3,247.9-119.3,347.5
	c-78.7,91-179.5,140.6-299.3,151.3c-97.6,8.7-189.2-8.6-270.8-65.8c-62.5-43.9-107.4-102.6-140.9-170.4
	c-43.7-88.3-67.9-182.1-75.9-280c-2.4-29.5,3.5-34.7,33-40.3c92-17.5,183.9-35.7,276-53c35.9-6.8,42.3-2.4,53.5,29.8
	c33.2,95.7,158.1,134.4,231.8,71.1c45.8-39.3,59.4-92.4,48.3-150.4c-6.5-33.9-32.6-53.6-63.2-66.7c-48.5-20.7-99.9-25.1-151.9-24.6
	c-19.8,0.2-39.7,1.5-59.4,3.6c-13.1,1.4-26.6,0.5-30.5-12.3c-3-9.9-2-25.2,4-32.8c21.5-27.3,45.1-53.1,69.2-78.2
	c35.8-37.3,72.7-73.6,109-110.3C1513.9,332.7,1516.9,329,1524.1,321z M1414.5,509.6c1,1.6,2,3.1,3,4.7c6.5,0,13-0.1,19.6,0
	c50.2,0.6,99.5,6.8,146.6,25.2c77.2,30.2,114.7,91.5,104,172.8c-8.1,62.1-32.3,116.4-87.9,150.1c-100.3,60.9-233.6,20.2-287.4-86.7
	c-5.6-11.1-10.5-16.6-24.2-13.9c-75.4,15.2-150.9,29.9-226.5,43.8c-13.6,2.5-18.1,7.1-16.1,21.1c11.2,81.5,32.3,160.1,69.7,233.7
	c31.7,62.6,73.5,117.2,133.8,155c92.6,58,192.9,63.6,295.2,36.5c128.6-34,215.4-118.4,266.1-239.3c50.5-120.4,49.2-241.1-10.4-358.9
	c-32.9-65.1-84-113.4-145.8-151.2c-20.5-12.5-21.6-31.2-3.7-47c2.7-2.4,5.5-4.7,8.3-6.9c67.2-51.6,134.3-103.4,201.9-154.5
	c11.3-8.5,16-18,16.2-31.8c0.3-34.8,1.9-69.7,2.4-104.5c0.4-27.3,0.1-54.7,0.1-82.1c-4.9-0.6-7.2-1.2-9.5-1.2
	c-238.2-0.1-476.3,0-714.5-0.3c-13.8,0-15.3,5.1-14.1,17.4c4.8,52,8.9,104.1,12.2,156.2c1.5,23,0.3,23.3,24.1,23.1
	c132.9-1,265.8-2.1,398.6-3.2c14.4-0.1,30.3-2.4,37.6,14.3c7.4,17-3.4,27.9-14.5,39c-50.2,50.1-100.2,100.5-150,150.9
	C1437.4,484.3,1426.1,497.1,1414.5,509.6z M79,881c10.7-85.2,8.1-170.3-2.5-255.2c-2.3-18.6,2.8-31.7,14.3-45.4
	c52.6-62.6,104.4-125.8,156.5-188.8c84.3-101.9,168.4-203.9,253.2-305.4c5-6,14.8-11.1,22.4-11.2c95-0.8,190.1-0.4,285.1-0.8
	c13.3-0.1,17.6,4.2,17.5,17.7c-0.7,55.9-0.4,111.9-0.2,167.8c0,19.5,9.2,29.6,25.8,29.5c16.5-0.2,25.3-10.2,25.3-30.1
	c0.1-68.6,0.1-137.1,0-205.7c0-22.6-7.4-30.1-30.6-30.1c-114.9-0.2-229.8-0.5-344.7,0.5c-9.8,0.1-22.5,6.4-28.8,14
	C325,214.8,178.5,392.4,31.6,569.7c-9.2,11.1-12.5,22.6-10.5,36.6c3,20.2,6.1,40.5,7.5,60.8c5.6,78.1,7.8,156.2-5.5,233.8
	c-6.4,37.1,2.1,46.4,40.2,45.2c120.2-3.6,240.4-6.3,360.6-9.8c11.9-0.3,15.6,3.7,16.5,15c3.4,42.5,8.2,84.9,11.3,127.5
	c5.1,68.6,2.8,136.9-8.4,204.8c-4.4,26.6,5.3,38.5,32.4,37c5.4-0.3,10.8-0.8,16.2-1.4c116.9-11.2,233.7-20.2,349.8,7.4
	c22.6,5.4,34.4-5.2,34.5-28.7c0.2-132.9,0.1-265.8,0-398.7c0-19.2-9.9-30-26.1-29.7c-15.8,0.3-24.9,11.3-25,30.7
	c-0.1,40.3-0.1,80.6-0.1,120.9c0,77,0,154,0,230.9c0,8.4,1.8,17.2-12.8,14.8c-81.7-13.2-164-12.4-246.3-6.7
	c-21.3,1.5-42.6,3.1-65.8,4.8c0.6-11.2,0.7-20.1,1.6-28.9c10.2-109.7,1.6-218.5-15-326.9c-3-19.5-11.2-26.3-30.1-25.9
	c-104.6,2.4-209.1,5-313.7,7.3c-20.8,0.5-41.6,0.1-63.4,0.1C79.4,887.9,78.5,884.4,79,881z M128.3,1435.7c4.9-1.1,8.4-1.1,10.4,0
	c3.2,1.5,4.8,5.1,4.8,10.8c0,0.3-0.1,0.7-0.2,1.3c-0.1,0.6-0.2,1-0.2,1.3c-0.3,2-3,3-8.2,3c-4,0-7.8-0.1-11.3-0.4h-3
	c-7.2,0-17,0.4-29.3,1.3c-12.3,0.9-19.4,1.7-21.5,2.6l-4.3,1.3l1.3,25.6c1.4,23.1,2.2,37.3,2.2,42.5c0.6,11.9,1.1,18.1,1.7,18.6
	c0.3,0.9,2.9,1.3,7.8,1.3c4,0,7.4-0.1,10-0.4c21.1-1.4,35.3-2.2,42.5-2.2c4.3,0,6.9,0.1,7.8,0.4c2,0.9,3,3.6,3,8.2v6.9l-13.9,0.4
	c-2.3,0-7.5,0.1-15.6,0.2c-8.1,0.1-14,0.2-17.8,0.2c-12.7,0-19.8,0.7-21.3,2.2c-0.6,0.6-0.9,2-0.9,4.3c0,14.2,2.7,29.8,8.2,46.8
	c2.3,7.8,3.5,13.7,3.5,17.8c0,2.3-0.6,4.6-1.7,6.9c-0.9,1.7-3.2,1.3-6.9-1.3c-3.5-2.6-5.6-6.4-6.5-11.3c0-0.3-1-5.9-3-16.9
	c-4.6-29.8-8.4-46.6-11.3-50.3c-2.6-3.5-3-7.2-1.3-11.3c1.4-3.7,2.2-14.9,2.2-33.4c0-18.2-0.7-31.7-2.2-40.3
	c-1.2-6.1-1.7-12.1-1.7-18.2c0-7.8,1.1-12.1,3.5-13c1.4-0.6,12.9-1.4,34.3-2.6C109.8,1437.7,122.8,1436.8,128.3,1435.7z
	 M249.7,1505.9c1.7-2.9,5.6-6.1,11.5-9.5c5.9-3.5,10.9-5.2,15-5.2h1.3c2.9,0.9,5.6,1.3,8.2,1.3c1.7,0,4.5,2.5,8.2,7.4
	c3.8,4.6,8.1,8.2,13,10.8c5.2,2.6,10.8,7.2,16.9,13.9c6.1,6.7,10.4,12.9,13,18.7c2.6,5.2,3.9,10.1,3.9,14.7c0,4.1-0.1,7.7-0.4,10.8
	c-0.9,16.2-3.9,27.3-9.1,33.4c-1.7,1.7-2.6,3.3-2.6,4.8c0,1.2-3.8,5.2-11.5,12.1c-7.7,6.9-12.1,10.4-13.2,10.4
	c-0.9,0-3.5,0.7-7.8,2.2c-6.1,2.6-14.2,3.9-24.3,3.9c-4.9,0-9-0.4-12.1-1.3c-4.6-1.2-9.8-4.3-15.4-9.3c-5.6-5.1-9.8-10.2-12.4-15.4
	c-2.9-6.6-4.3-14.7-4.3-24.3c0-13.9,1.7-28.2,5-42.9c3.3-14.7,7-24.1,11.1-28.2C245.7,1512.2,247.7,1509.4,249.7,1505.9z
	 M296.1,1520.3c-0.3,0-3.4-1.7-9.3-5.2c-5.9-3.5-10.2-5.2-12.8-5.2h-1.7c-2.3,0.6-5.9,2.7-10.8,6.5c-5.5,4.3-9.5,10-12.1,16.9
	c-3.5,8.4-6.4,23-8.7,43.8c-0.9,5.2-1.3,8.8-1.3,10.8c0,2.6,1.2,6.7,3.5,12.1c3.2,6.7,6.5,11,10,13c5.5,3.2,12.4,4.8,20.8,4.8
	c6.1,0,11.3-0.9,15.6-2.6c4.9-2,9-3,12.1-3c5.5-0.6,12.1-6.9,19.9-19.1c4.3-6.4,6.6-14.5,6.9-24.3v-7.4c0-5.5-1.3-10.4-3.9-14.7
	c-2.3-4-6.6-9-12.8-15C305.3,1525.8,300.2,1522,296.1,1520.3z M509.5,1510.7c0.6-2.6,2.1-4.3,4.6-5c2.5-0.7,4.3-0.1,5.4,2
	c0.6,0.6,0.9,3.5,0.9,8.7c0,1.2-0.1,3.1-0.2,5.9c-0.1,2.8-0.2,4.8-0.2,6.3c0,2-0.1,4.9-0.2,8.7c-0.1,3.8-0.2,6.5-0.2,8.2
	c0,29.5,2.9,52.1,8.7,67.7c2.6,7.2,3.9,13.4,3.9,18.6c0,6.1-1.7,9.1-5.2,9.1c-0.6,0-1.7-0.3-3.5-0.9c-2.9-1.5-4.9-5.3-6.1-11.7
	c-1.2-6.6-1.9-10.3-2.2-10.8c0-0.3-0.4-0.2-1.3,0.2c-0.9,0.4-1.9,1.2-3.3,2.4c-1.3,1.2-2.5,2.5-3.7,3.9c-3.2,3.5-6,5.9-8.5,7.2
	c-2.5,1.3-7,2.5-13.7,3.7c-9.5,1.7-16.6,2.6-21.3,2.6c-6.4,0-11.6-1.9-15.6-5.6c-8.1-6.6-14.3-17.9-18.6-33.8
	c-1.2-4.3-2.3-15.5-3.5-33.6c-1.2-18.1-1.7-32.5-1.7-43.1c0-6.1,0.3-9.4,0.9-10c1.4-1.4,3.5-1.7,6.1-0.9c1.7,0.6,2.8,1.9,3.3,3.9
	c0.4,2,0.7,6.7,0.7,13.9c0,12.1,0.7,25.7,2.2,40.8c1.7,22.3,6.6,37.7,14.7,46.4c2.9,3.2,5.8,4.8,8.7,4.8c0.6,0,3.8-0.3,9.5-0.9
	c16.8-1.5,26.9-5.1,30.4-10.8c1.1-2.3,3.2-7.5,6.1-15.6c2-6.4,3-13.9,3-22.6c0-8.1-0.1-15.3-0.4-21.7c0-2.6-0.1-6.2-0.2-10.8
	c-0.1-4.6-0.2-8-0.2-10C508.6,1518.7,508.9,1513,509.5,1510.7z M619.6,1486.9c2-2.3,3.5-3.4,4.6-3.3c1,0.1,2.4,1.5,4.1,4.1
	c1.7,3.2,2.6,7.8,2.6,13.9c0,2.6-0.1,6.2-0.4,10.6c-0.3,4.5-0.4,7.3-0.4,8.5c0,2.6,0.3,3.9,0.9,3.9c1.2,0,4.6-3.6,10.4-10.8
	c8.1-10.7,14.7-17.7,19.7-21c5.1-3.3,12.1-5.6,21-6.7c0.3,0,1-0.1,2.2-0.2c1.2-0.1,1.9-0.2,2.2-0.2c6.6,0,12.4,1.6,17.3,4.8
	c4.9,3.2,8,7.2,9.1,12.1c0,0.9,1.9,5.6,5.6,14.3c2.6,6.4,4.1,11.9,4.6,16.5c0.4,4.6,0.8,17.9,1.1,39.9c0,7.2,0.1,14.8,0.2,22.8
	c0.1,8,0.3,14.6,0.4,19.9c0.1,5.4,0.2,8.5,0.2,9.3c0.3,3.8,0.1,6.1-0.4,7.2c-0.6,1-2,1.9-4.3,2.8c-2.3,0.6-3.6,0.9-3.9,0.9
	c-2.6,0-4.1-3-4.6-8.9c-0.4-5.9-0.7-20.7-0.7-44.4c0-33.2-1.2-52.9-3.5-59c-5.2-14.7-11.9-22.1-20-22.1c-1.7,0-3.2,0.1-4.3,0.4
	c-1.2,0-3,0.3-5.6,0.9c-2.6,0.6-4.3,1-5.2,1.3c-3.5,0.6-8.3,4.3-14.5,11.1c-6.2,6.8-10.9,13.5-14.1,20.2c-3.2,6.7-5.2,10.1-6.1,10.4
	c-0.9,0.3-1.3,1.3-1.3,3s-1,3.3-3,4.8c-1.4,1.5-2.2,4.3-2.2,8.7c0,8.4,1.7,18.1,5.2,29.1c2.3,6.7,3.5,13.4,3.5,20.4
	c0,3.8-0.4,6.4-1.3,7.8c-1.2,1.5-3.2,1.6-6.1,0.4c-5.8-2-8.7-7.7-8.7-16.9c0-5.2-2.7-24.1-8.2-56.8c-0.6-2.6-0.4-4.6,0.4-6.1
	c0.6-0.6,0.9-9.1,0.9-25.6v-11.3C617,1494.1,617.9,1488.6,619.6,1486.9z M900.7,1444.4c2.6-4,5.5-3.2,8.7,2.6
	c1.4,2.3,2.8,12.8,4.1,31.4c1.3,18.6,2.1,37.5,2.4,56.6c0,6.7,2.2,18.7,6.5,36c4,15.6,6.1,24.9,6.1,27.8c0,1.5-1.4,3.1-4.1,5
	c-2.7,1.9-5,2.8-6.7,2.8h-0.9c-1.5-0.6-2.8-3.3-4.1-8c-1.3-4.8-1.9-9.8-1.9-15c0-5.8-1.2-9.3-3.5-10.4c-0.9-0.6-2.2-0.9-3.9-0.9
	c-2.9,0-8,3.6-15.2,10.8c-14.5,15-33.4,22.6-56.8,22.6c-3.8,0-6.4-0.4-8-1.1c-1.6-0.7-4.1-2.8-7.6-6.3c-4.9-4.9-7.4-10.1-7.4-15.6
	c0-18.5,5.5-36.7,16.5-54.6c4.3-8.4,11-15.8,19.9-22.1c9-6.4,18.5-9.5,28.6-9.5c6.6,0,13,1.5,19.1,4.3c6.1,3.2,9.4,4.3,10,3.5
	c0.3-0.6,0.4-1.2,0.4-1.7c0-1.2-0.3-6.9-0.9-17.3c-1.5-12.4-2.2-23.3-2.2-32.5C899.8,1447.7,900.1,1444.9,900.7,1444.4z
	 M886.8,1514.2c-3.2-2.3-7.1-3.5-11.7-3.5c-10.7,0-20.4,4-29.1,12.1c-5.8,5.8-11.1,14.7-16,26.7c-4.9,12-7.4,21.8-7.4,29.3
	c0,4.3,0.9,7.1,2.6,8.2c1.7,1.5,4.9,2.2,9.5,2.2c5.5,0,12.3-1,20.4-3c6.1-1.5,10.3-2.9,12.6-4.3c2.3-1.4,5.3-4.2,9.1-8.2
	c5.5-6.4,10.8-10.4,16-12.1s8.5-3.3,9.8-4.8c1.3-1.4,2-4.2,2-8.2c0-0.9-0.1-2.3-0.2-4.3c-0.1-2-0.2-3.9-0.2-5.6
	c-0.6-12.1-0.9-18.4-0.9-18.6c0-1.5-2-2.2-6.1-2.2C893.2,1517.7,889.7,1516.5,886.8,1514.2z M1062.4,1481.7c4.6-0.6,7.7-0.9,9.1-0.9
	c9.5,0,17.2,4.2,23,12.6c5.5,8.1,9,15.1,10.6,21c1.6,5.9,2.5,15.7,2.8,29.3c0.3,9.3,1.3,23.4,3,42.5c0.9,6.9,1.3,12.3,1.3,16
	c0,4.3-0.6,7.2-1.7,8.5c-1.2,1.3-3.5,2.1-6.9,2.4c-4.6,0.6-8.4,0.3-11.3-0.9h-0.9c-0.3-0.3-0.6-0.4-0.9-0.4c-2.9,0-8.7,1.9-17.3,5.6
	c-11,4.6-17.9,6.9-20.8,6.9c-0.3,0-2.5,0.3-6.5,0.9c-4,0.6-7.2,1-9.5,1.3c-4.6,0.6-7.4,0.9-8.2,0.9c-2.3,0-4.6-0.7-6.9-2.2
	c-3.8-2.3-6.2-4.8-7.4-7.6c-1.2-2.7-1.7-7.6-1.7-14.5v-8.7c0.6-15.3,3-25.7,7.2-31.2c4.2-5.5,14.5-11.1,31-16.9l11.7-4.3l10.4,3.5
	c7.2,2.9,12.6,5.8,16,8.7c2.9,2.3,4.8,3.5,5.6,3.5c1.4,0,2.2-3,2.2-9.1c0-0.9-0.1-2.6-0.2-5.2c-0.1-2.6-0.2-4.8-0.2-6.5
	c-0.9-19.4-4.8-31.1-11.7-35.1c-2-0.9-4.9-1.3-8.7-1.3c-15,0-29.5,4.1-43.4,12.1c-3.8,2-6.8,3-9.1,3c-2.6,0-4.8-1.3-6.5-3.9
	c-1.2-1.4-1.7-3.2-1.7-5.2c0-2.6,1.9-5.6,5.6-9.1c2.6-2.3,8.8-5.3,18.7-8.9C1048.8,1484.8,1056.6,1482.5,1062.4,1481.7z
	 M1079.8,1564.9c-2-2-7.2-3.3-15.6-3.9h-3.9c-5.5,0-11.9,1.7-19.1,5.2c-4.9,2.6-8.2,4.6-9.8,6.1c-1.6,1.5-3,4.1-4.1,7.8
	c-2,4.9-3,10-3,15.2c0,5.5,1.3,9.5,3.9,12.1c2,2,4.8,3,8.2,3c2.6,0,4.8-0.1,6.5-0.4c9.2-0.6,16-1.9,20.4-3.9
	c1.7-0.9,3.8-1.7,6.1-2.4c2.3-0.7,3.8-1.3,4.6-1.7c0.7-0.4,1.7-1.1,3-2c1.3-0.9,2.4-2,3.3-3.5c0.9-1.5,1.9-3.3,3-5.6
	c2.3-4.6,3.5-8,3.5-10c0-1.4-0.4-3.5-1.3-6.1C1084.6,1571.1,1082.7,1567.8,1079.8,1564.9z M1219.4,1451.3c0.6-2,2-3.3,4.3-3.7
	c2.3-0.4,4,0.2,5.2,1.9c0.9,1.5,1.9,6.1,3,13.9c2.6,18.5,4.8,29.2,6.5,32.1c0.9,1.5,8.2,2.2,22.1,2.2c16.8,0,25.2,2,25.2,6.1
	c0,1.2-0.4,2.6-1.3,4.3c-1.2,2.9-3.5,4.8-6.9,5.6c-3.5,0.9-9.8,1.3-19.1,1.3c-13,0-20.2,1.7-21.7,5.2l-0.4,1.3c0,0.9,0,1.6,0,2.2
	c0,8.1,1.5,22.4,4.6,42.9c3,20.5,5.6,32.7,7.6,36.4c3.5,7.5,9.5,11.3,18.2,11.3c6.6,0,14.7-6.6,24.3-19.9c3.5-4.9,6.2-7.4,8.2-7.4
	c1.7,0,2.6,2.8,2.6,8.2c0,5.8-2.6,12.1-7.8,19.1c-5.5,7.2-9,12-10.4,14.3c-1.4,2.3-4.9,3.5-10.4,3.5h-5.6
	c-6.1-0.3-10.1-0.8-11.9-1.5c-1.9-0.7-4.1-2.5-6.7-5.4c-6.1-6.9-10-12.7-11.7-17.3c-1.7-4.6-4.2-15.8-7.4-33.4
	c-2.6-14.2-3.9-25.9-3.9-35.1c0-9.5-0.6-14.6-1.7-15.2c-1.4-0.6-4.8-0.4-10,0.4c-5.8,1.2-9.8,0.4-12.1-2.2c-3.2-4-4.8-7.5-4.8-10.4
	c0-5.2,5.1-8.5,15.2-10c6.4-0.3,10.3-1.7,11.7-4.3c0.3-0.3,0.4-1.6,0.4-3.9c0-13-1.9-24.9-5.6-35.6
	C1218.7,1456.8,1218.8,1454.5,1219.4,1451.3z M1437.6,1411.8c2.9-1.5,5.2-2.2,6.9-2.2c7.5,0,11.7,5.9,12.6,17.8
	c0,0.6,0.1,1.4,0.2,2.4c0.1,1,0.2,1.7,0.2,2c0,3.5-2,9.4-6.1,17.8c-2.6,5.5-5.1,9.8-7.4,12.8c-2.3,3-4.3,6.2-6.1,9.3
	c-4.1,8.7-8.4,13-13,13c-0.3,0-0.6-0.1-1.1-0.2c-0.4-0.1-0.8-0.2-1.1-0.2c-3.5-1.2-5.8-2.3-6.9-3.5c-1.2-1.7-3.2-2.6-6.1-2.6
	c-2,0-4.1-0.9-6.3-2.8c-2.2-1.9-3.3-3.5-3.3-5c0-0.3-2-4.8-6.1-13.4c-4.3-9.2-6.5-17.3-6.5-24.3c0-4.6,1-8,3-10
	c2.3-2.3,4.8-3.5,7.4-3.5c3.8,0,8.4,2.3,13.9,6.9c6.1,5.5,9.1,8.5,9.1,9.1c0.3,1.2,0.9,1.7,1.7,1.7c2.3,0,4.9-3.9,7.8-11.7
	C1433.2,1417.2,1435.5,1412.7,1437.6,1411.8z M1425.4,1507.7c1.7-1.7,3.2-2.6,4.3-2.6c1.4,0,3.3,1.2,5.4,3.7
	c2.2,2.5,3.4,4.7,3.7,6.7c1.1,11.9,2.3,35.6,3.5,71.1c0.3,6.9,0.4,14.9,0.4,23.8c0,7.8-0.6,12.4-1.7,13.9c-1.4,1.7-3,2.6-4.8,2.6
	c-3.5,0-5.6-1.9-6.5-5.6c-0.9-4.9-1.6-18.5-2.2-40.8c-0.9-32.4-2-52.9-3.5-61.6C1423.3,1513.2,1423.7,1509.4,1425.4,1507.7z
	 M1563.8,1505.9c1.7-2.9,5.6-6.1,11.5-9.5c5.9-3.5,10.9-5.2,15-5.2h1.3c2.9,0.9,5.6,1.3,8.2,1.3c1.7,0,4.5,2.5,8.2,7.4
	c3.8,4.6,8.1,8.2,13,10.8c5.2,2.6,10.8,7.2,16.9,13.9c6.1,6.7,10.4,12.9,13,18.7c2.6,5.2,3.9,10.1,3.9,14.7c0,4.1-0.1,7.7-0.4,10.8
	c-0.9,16.2-3.9,27.3-9.1,33.4c-1.7,1.7-2.6,3.3-2.6,4.8c0,1.2-3.8,5.2-11.5,12.1c-7.7,6.9-12.1,10.4-13.2,10.4
	c-0.9,0-3.5,0.7-7.8,2.2c-6.1,2.6-14.2,3.9-24.3,3.9c-4.9,0-9-0.4-12.1-1.3c-4.6-1.2-9.8-4.3-15.4-9.3c-5.6-5.1-9.8-10.2-12.4-15.4
	c-2.9-6.6-4.3-14.7-4.3-24.3c0-13.9,1.7-28.2,5-42.9c3.3-14.7,7-24.1,11.1-28.2C1559.7,1512.2,1561.7,1509.4,1563.8,1505.9z
	 M1610.2,1520.3c-0.3,0-3.4-1.7-9.3-5.2c-5.9-3.5-10.2-5.2-12.8-5.2h-1.7c-2.3,0.6-5.9,2.7-10.8,6.5c-5.5,4.3-9.5,10-12.1,16.9
	c-3.5,8.4-6.4,23-8.7,43.8c-0.9,5.2-1.3,8.8-1.3,10.8c0,2.6,1.2,6.7,3.5,12.1c3.2,6.7,6.5,11,10,13c5.5,3.2,12.4,4.8,20.8,4.8
	c6.1,0,11.3-0.9,15.6-2.6c4.9-2,9-3,12.1-3c5.5-0.6,12.1-6.9,19.9-19.1c4.3-6.4,6.6-14.5,6.9-24.3v-7.4c0-5.5-1.3-10.4-3.9-14.7
	c-2.3-4-6.6-9-12.8-15C1619.4,1525.8,1614.2,1522,1610.2,1520.3z M1742,1486.9c2-2.3,3.5-3.4,4.6-3.3c1,0.1,2.4,1.5,4.1,4.1
	c1.7,3.2,2.6,7.8,2.6,13.9c0,2.6-0.1,6.2-0.4,10.6c-0.3,4.5-0.4,7.3-0.4,8.5c0,2.6,0.3,3.9,0.9,3.9c1.2,0,4.6-3.6,10.4-10.8
	c8.1-10.7,14.7-17.7,19.7-21c5.1-3.3,12.1-5.6,21-6.7c0.3,0,1-0.1,2.2-0.2c1.2-0.1,1.9-0.2,2.2-0.2c6.6,0,12.4,1.6,17.3,4.8
	c4.9,3.2,8,7.2,9.1,12.1c0,0.9,1.9,5.6,5.6,14.3c2.6,6.4,4.1,11.9,4.6,16.5c0.4,4.6,0.8,17.9,1.1,39.9c0,7.2,0.1,14.8,0.2,22.8
	c0.1,8,0.3,14.6,0.4,19.9c0.1,5.4,0.2,8.5,0.2,9.3c0.3,3.8,0.1,6.1-0.4,7.2c-0.6,1-2,1.9-4.3,2.8c-2.3,0.6-3.6,0.9-3.9,0.9
	c-2.6,0-4.1-3-4.6-8.9c-0.4-5.9-0.7-20.7-0.7-44.4c0-33.2-1.2-52.9-3.5-59c-5.2-14.7-11.9-22.1-20-22.1c-1.7,0-3.2,0.1-4.3,0.4
	c-1.2,0-3,0.3-5.6,0.9c-2.6,0.6-4.3,1-5.2,1.3c-3.5,0.6-8.3,4.3-14.5,11.1c-6.2,6.8-10.9,13.5-14.1,20.2c-3.2,6.7-5.2,10.1-6.1,10.4
	c-0.9,0.3-1.3,1.3-1.3,3s-1,3.3-3,4.8c-1.4,1.5-2.2,4.3-2.2,8.7c0,8.4,1.7,18.1,5.2,29.1c2.3,6.7,3.5,13.4,3.5,20.4
	c0,3.8-0.4,6.4-1.3,7.8c-1.2,1.5-3.2,1.6-6.1,0.4c-5.8-2-8.7-7.7-8.7-16.9c0-5.2-2.7-24.1-8.2-56.8c-0.6-2.6-0.4-4.6,0.4-6.1
	c0.6-0.6,0.9-9.1,0.9-25.6v-11.3C1739.4,1494.1,1740.3,1488.6,1742,1486.9z"></path>
</svg>